<mxfile modified="2022-10-10T14:42:27.527Z" host="app.diagrams.net" agent="5.0 (Macintosh)" etag="9KrkKfjBwam8eyjklXRp" version="20.4.0" type="github">
  <diagram name="Page-1" id="74e2e168-ea6b-b213-b513-2b3c1d86103e">
    <mxGraphModel dx="624" dy="1215" grid="1" gridSize="10" guides="1" tooltips="1" connect="1" arrows="1" fold="1" page="1" pageScale="1" pageWidth="1169" pageHeight="827" background="none" math="0" shadow="0">
      <root>
        <mxCell id="0" />
        <mxCell id="1" parent="0" />
        <mxCell id="77e6c97f196da883-1" value="&lt;font style=&quot;font-size: 14px&quot;&gt;Life of a patch&lt;/font&gt;" style="swimlane;html=1;childLayout=stackLayout;startSize=20;rounded=0;shadow=0;labelBackgroundColor=none;strokeColor=#000000;strokeWidth=1;fillColor=none;fontFamily=Verdana;fontSize=8;fontColor=#000000;align=center;" parent="1" vertex="1">
          <mxGeometry x="40" y="-230" width="1100" height="470" as="geometry">
            <mxRectangle x="90" y="-230" width="50" height="20" as="alternateBounds" />
          </mxGeometry>
        </mxCell>
        <mxCell id="rqEri4Stav3ALLFuLHy2-93" style="edgeStyle=none;rounded=1;jumpStyle=arc;orthogonalLoop=1;jettySize=auto;html=1;exitX=1;exitY=0.5;exitDx=0;exitDy=0;entryX=0;entryY=0.5;entryDx=0;entryDy=0;" parent="77e6c97f196da883-1" source="rqEri4Stav3ALLFuLHy2-65" target="rqEri4Stav3ALLFuLHy2-66" edge="1">
          <mxGeometry relative="1" as="geometry">
            <Array as="points">
              <mxPoint x="300" y="280" />
              <mxPoint x="300" y="100" />
            </Array>
          </mxGeometry>
        </mxCell>
        <mxCell id="77e6c97f196da883-26" style="edgeStyle=orthogonalEdgeStyle;rounded=1;html=1;labelBackgroundColor=none;startArrow=none;startFill=0;startSize=5;endArrow=classicThin;endFill=1;endSize=5;jettySize=auto;orthogonalLoop=1;strokeColor=#000000;strokeWidth=1;fontFamily=Verdana;fontSize=8;fontColor=#000000;" parent="77e6c97f196da883-1" source="77e6c97f196da883-8" target="77e6c97f196da883-11" edge="1">
          <mxGeometry relative="1" as="geometry" />
        </mxCell>
        <mxCell id="77e6c97f196da883-27" style="edgeStyle=orthogonalEdgeStyle;rounded=1;html=1;labelBackgroundColor=none;startArrow=none;startFill=0;startSize=5;endArrow=classicThin;endFill=1;endSize=5;jettySize=auto;orthogonalLoop=1;strokeColor=#000000;strokeWidth=1;fontFamily=Verdana;fontSize=8;fontColor=#000000;entryX=0.5;entryY=0;entryDx=0;entryDy=0;" parent="77e6c97f196da883-1" source="77e6c97f196da883-11" target="77e6c97f196da883-9" edge="1">
          <mxGeometry relative="1" as="geometry">
            <Array as="points">
              <mxPoint x="240" y="140" />
              <mxPoint x="80" y="140" />
            </Array>
          </mxGeometry>
        </mxCell>
        <mxCell id="77e6c97f196da883-2" value="Developer machine" style="swimlane;html=1;startSize=20;fillColor=#dae8fc;strokeColor=#6c8ebf;" parent="77e6c97f196da883-1" vertex="1">
          <mxGeometry y="20" width="160" height="450" as="geometry" />
        </mxCell>
        <mxCell id="77e6c97f196da883-10" value="Developer code, edits files, and commits changes.&lt;br&gt;Merges/rebases integration branch if necessary" style="rounded=1;whiteSpace=wrap;html=1;shadow=0;labelBackgroundColor=none;strokeColor=#6c8ebf;strokeWidth=1;fillColor=#dae8fc;fontFamily=Verdana;fontSize=8;fontColor=#000000;align=center;" parent="77e6c97f196da883-2" vertex="1">
          <mxGeometry x="30" y="230" width="100" height="70" as="geometry" />
        </mxCell>
        <mxCell id="77e6c97f196da883-9" value="&lt;div&gt;Developer creates feature branch for his/her/their&lt;/div&gt;&lt;div&gt;&amp;nbsp;work&lt;/div&gt;" style="rounded=1;whiteSpace=wrap;html=1;shadow=0;labelBackgroundColor=none;strokeColor=#6c8ebf;strokeWidth=1;fillColor=#dae8fc;fontFamily=Verdana;fontSize=8;fontColor=#000000;align=center;" parent="77e6c97f196da883-2" vertex="1">
          <mxGeometry x="30" y="140" width="100" height="60" as="geometry" />
        </mxCell>
        <mxCell id="5" value="" style="endArrow=classic;html=1;entryX=0.5;entryY=0;exitX=0.5;exitY=1;" parent="77e6c97f196da883-2" source="77e6c97f196da883-9" target="77e6c97f196da883-10" edge="1">
          <mxGeometry width="50" height="50" relative="1" as="geometry">
            <mxPoint x="80" y="250" as="sourcePoint" />
            <mxPoint x="50" y="750" as="targetPoint" />
          </mxGeometry>
        </mxCell>
        <mxCell id="77e6c97f196da883-8" value="Developer sets up development environment with git" style="rounded=1;whiteSpace=wrap;html=1;shadow=0;labelBackgroundColor=none;strokeColor=#6c8ebf;strokeWidth=1;fillColor=#dae8fc;fontFamily=Verdana;fontSize=8;fontColor=#000000;align=center;" parent="77e6c97f196da883-2" vertex="1">
          <mxGeometry x="30" y="50" width="100" height="60" as="geometry" />
        </mxCell>
        <mxCell id="KYjhEQh0ZWCMsTncpk0a-76" value="A new feature branch must be created and run through the pipeline for the integration to be OK again" style="rounded=1;whiteSpace=wrap;html=1;shadow=0;labelBackgroundColor=none;strokeColor=#6c8ebf;strokeWidth=1;fillColor=#dae8fc;fontFamily=Verdana;fontSize=8;fontColor=#000000;align=center;" parent="77e6c97f196da883-2" vertex="1">
          <mxGeometry x="30" y="380" width="100" height="60" as="geometry" />
        </mxCell>
        <mxCell id="KYjhEQh0ZWCMsTncpk0a-79" style="orthogonalLoop=1;jettySize=auto;html=1;exitX=0.5;exitY=0;exitDx=0;exitDy=0;entryX=0;entryY=0.5;entryDx=0;entryDy=0;edgeStyle=orthogonalEdgeStyle;rounded=1;" parent="77e6c97f196da883-2" source="KYjhEQh0ZWCMsTncpk0a-76" target="77e6c97f196da883-8" edge="1">
          <mxGeometry relative="1" as="geometry">
            <mxPoint x="450" y="540.0000000000002" as="targetPoint" />
            <Array as="points">
              <mxPoint x="80" y="360" />
              <mxPoint x="10" y="360" />
              <mxPoint x="10" y="80" />
            </Array>
          </mxGeometry>
        </mxCell>
        <mxCell id="77e6c97f196da883-3" value="Interaction w. Github" style="swimlane;html=1;startSize=20;fillColor=#dae8fc;strokeColor=#6c8ebf;" parent="77e6c97f196da883-1" vertex="1">
          <mxGeometry x="160" y="20" width="150" height="450" as="geometry" />
        </mxCell>
        <mxCell id="77e6c97f196da883-11" value="Developer pulls latest code from Github" style="rounded=1;whiteSpace=wrap;html=1;shadow=0;labelBackgroundColor=none;strokeColor=#6c8ebf;strokeWidth=1;fillColor=#dae8fc;fontFamily=Verdana;fontSize=8;fontColor=#000000;align=center;" parent="77e6c97f196da883-3" vertex="1">
          <mxGeometry x="25" y="50" width="100" height="60" as="geometry" />
        </mxCell>
        <mxCell id="6" value="Developer pushes commits to feature branch on Github " style="rounded=1;whiteSpace=wrap;html=1;shadow=0;labelBackgroundColor=none;strokeColor=#6c8ebf;strokeWidth=1;fillColor=#dae8fc;fontFamily=Verdana;fontSize=8;fontColor=#000000;align=center;" parent="77e6c97f196da883-3" vertex="1">
          <mxGeometry x="25" y="140" width="100" height="60" as="geometry" />
        </mxCell>
        <mxCell id="rqEri4Stav3ALLFuLHy2-65" value="A pull-request (PR) is made and reviewers are added to the PR" style="rounded=1;whiteSpace=wrap;html=1;shadow=0;labelBackgroundColor=none;strokeColor=#6c8ebf;strokeWidth=1;fillColor=#dae8fc;fontFamily=Verdana;fontSize=8;fontColor=#000000;align=center;arcSize=11;" parent="77e6c97f196da883-3" vertex="1">
          <mxGeometry x="25" y="230" width="100" height="60" as="geometry" />
        </mxCell>
        <mxCell id="rqEri4Stav3ALLFuLHy2-74" value="" style="endArrow=classic;html=1;entryX=0.5;entryY=0;entryDx=0;entryDy=0;exitX=0.5;exitY=1;exitDx=0;exitDy=0;" parent="77e6c97f196da883-3" source="6" target="rqEri4Stav3ALLFuLHy2-65" edge="1">
          <mxGeometry width="50" height="50" relative="1" as="geometry">
            <mxPoint x="330" y="-25" as="sourcePoint" />
            <mxPoint x="225" y="150" as="targetPoint" />
            <Array as="points" />
          </mxGeometry>
        </mxCell>
        <mxCell id="7" value="" style="endArrow=classic;html=1;entryX=0;entryY=0.5;exitX=1;exitY=0.5;entryDx=0;entryDy=0;" parent="77e6c97f196da883-1" source="77e6c97f196da883-10" target="6" edge="1">
          <mxGeometry width="50" height="50" relative="1" as="geometry">
            <mxPoint x="80" y="245" as="sourcePoint" />
            <mxPoint x="80" y="280" as="targetPoint" />
            <Array as="points">
              <mxPoint x="170" y="285" />
              <mxPoint x="170" y="250" />
              <mxPoint x="170" y="190" />
            </Array>
          </mxGeometry>
        </mxCell>
        <mxCell id="dbzHidqioh4Nz6uhVq-0-89" value="&lt;div&gt;&lt;br&gt;&lt;/div&gt;" style="text;html=1;resizable=0;points=[];align=center;verticalAlign=middle;labelBackgroundColor=#ffffff;" parent="7" vertex="1" connectable="0">
          <mxGeometry x="0.8892" relative="1" as="geometry">
            <mxPoint as="offset" />
          </mxGeometry>
        </mxCell>
        <mxCell id="rqEri4Stav3ALLFuLHy2-64" value="&lt;div&gt;Pull-request&lt;/div&gt;" style="swimlane;html=1;startSize=20;fillColor=#E1D5E7;strokeColor=#9673A6;" parent="77e6c97f196da883-1" vertex="1">
          <mxGeometry x="310" y="20" width="150" height="450" as="geometry" />
        </mxCell>
        <mxCell id="rqEri4Stav3ALLFuLHy2-66" value="&lt;div&gt;Reviewers checks the PR and make comments&lt;/div&gt;" style="rounded=1;whiteSpace=wrap;html=1;shadow=0;labelBackgroundColor=none;strokeColor=#9673A6;strokeWidth=1;fillColor=#E1D5E7;fontFamily=Verdana;fontSize=8;fontColor=#000000;align=center;" parent="rqEri4Stav3ALLFuLHy2-64" vertex="1">
          <mxGeometry x="25" y="50" width="100" height="60" as="geometry" />
        </mxCell>
        <mxCell id="rqEri4Stav3ALLFuLHy2-67" value="&lt;div&gt;Developer/reviewer merges PR in Github&lt;/div&gt;" style="rounded=1;whiteSpace=wrap;html=1;shadow=0;labelBackgroundColor=none;strokeColor=#9673A6;strokeWidth=1;fillColor=#E1D5E7;fontFamily=Verdana;fontSize=8;fontColor=#000000;align=center;" parent="rqEri4Stav3ALLFuLHy2-64" vertex="1">
          <mxGeometry x="25" y="230" width="100" height="60" as="geometry" />
        </mxCell>
        <mxCell id="rqEri4Stav3ALLFuLHy2-82" value="Yes" style="edgeStyle=none;rounded=1;jumpStyle=arc;orthogonalLoop=1;jettySize=auto;html=1;exitX=0.5;exitY=1;exitDx=0;exitDy=0;entryX=0.5;entryY=0;entryDx=0;entryDy=0;labelBackgroundColor=none;" parent="rqEri4Stav3ALLFuLHy2-64" source="rqEri4Stav3ALLFuLHy2-77" edge="1">
          <mxGeometry x="0.3333" y="15" relative="1" as="geometry">
            <mxPoint x="75" y="200" as="sourcePoint" />
            <mxPoint x="75" y="230" as="targetPoint" />
            <mxPoint as="offset" />
          </mxGeometry>
        </mxCell>
        <mxCell id="rqEri4Stav3ALLFuLHy2-77" value="&lt;div&gt;PR is approved&lt;/div&gt;" style="rhombus;whiteSpace=wrap;html=1;rounded=0;shadow=0;labelBackgroundColor=none;strokeColor=#9673A6;strokeWidth=1;fillColor=#E1D5E7;fontFamily=Verdana;fontSize=8;fontColor=#000000;align=center;" parent="rqEri4Stav3ALLFuLHy2-64" vertex="1">
          <mxGeometry x="35" y="140" width="80" height="60" as="geometry" />
        </mxCell>
        <mxCell id="rqEri4Stav3ALLFuLHy2-78" style="edgeStyle=none;rounded=1;orthogonalLoop=1;jettySize=auto;html=1;exitX=0.5;exitY=1;exitDx=0;exitDy=0;entryX=0.5;entryY=0;entryDx=0;entryDy=0;" parent="rqEri4Stav3ALLFuLHy2-64" source="rqEri4Stav3ALLFuLHy2-66" target="rqEri4Stav3ALLFuLHy2-77" edge="1">
          <mxGeometry relative="1" as="geometry">
            <mxPoint x="50" y="200" as="targetPoint" />
            <Array as="points" />
          </mxGeometry>
        </mxCell>
        <mxCell id="27" value="" style="endArrow=classic;html=1;entryX=0;entryY=0.5;exitX=1;exitY=0.5;exitDx=0;exitDy=0;" parent="77e6c97f196da883-1" source="rqEri4Stav3ALLFuLHy2-67" target="77e6c97f196da883-15" edge="1">
          <mxGeometry width="50" height="50" relative="1" as="geometry">
            <mxPoint x="530" y="470" as="sourcePoint" />
            <mxPoint x="660" y="810" as="targetPoint" />
            <Array as="points">
              <mxPoint x="450" y="280" />
              <mxPoint x="450" y="240" />
              <mxPoint x="610" y="240" />
              <mxPoint x="610" y="100" />
            </Array>
          </mxGeometry>
        </mxCell>
        <mxCell id="77e6c97f196da883-4" value="CI Feature Stage" style="swimlane;html=1;startSize=20;fillColor=#d5e8d4;strokeColor=#82b366;" parent="77e6c97f196da883-1" vertex="1">
          <mxGeometry x="460" y="20" width="160" height="450" as="geometry" />
        </mxCell>
        <mxCell id="rqEri4Stav3ALLFuLHy2-83" value="" style="group" parent="77e6c97f196da883-4" vertex="1" connectable="0">
          <mxGeometry x="30" y="230" width="100" height="151" as="geometry" />
        </mxCell>
        <mxCell id="11" value="&lt;div&gt;The PR pipeline is triggered on CI&lt;/div&gt;" style="rounded=1;whiteSpace=wrap;html=1;shadow=0;labelBackgroundColor=none;strokeColor=#82b366;strokeWidth=1;fillColor=#d5e8d4;fontFamily=Verdana;fontSize=8;fontColor=#000000;align=center;" parent="rqEri4Stav3ALLFuLHy2-83" vertex="1">
          <mxGeometry width="100" height="60" as="geometry" />
        </mxCell>
        <mxCell id="12" value="Pipeline OK&lt;br&gt;All builds are Green?" style="rhombus;whiteSpace=wrap;html=1;rounded=0;shadow=0;labelBackgroundColor=none;strokeColor=#82b366;strokeWidth=1;fillColor=#d5e8d4;fontFamily=Verdana;fontSize=8;fontColor=#000000;align=center;" parent="rqEri4Stav3ALLFuLHy2-83" vertex="1">
          <mxGeometry x="10" y="90" width="80" height="60" as="geometry" />
        </mxCell>
        <mxCell id="14" value="" style="endArrow=classic;html=1;exitX=0.5;exitY=1;entryX=0.5;entryY=0;" parent="rqEri4Stav3ALLFuLHy2-83" source="11" target="12" edge="1">
          <mxGeometry width="50" height="50" relative="1" as="geometry">
            <mxPoint x="-209.66666666666663" y="235.33333333333337" as="sourcePoint" />
            <mxPoint x="50" y="265" as="targetPoint" />
          </mxGeometry>
        </mxCell>
        <mxCell id="rqEri4Stav3ALLFuLHy2-85" value="The feature branch triggers a pipeline on CI" style="rounded=1;whiteSpace=wrap;html=1;shadow=0;labelBackgroundColor=none;strokeColor=#82b366;strokeWidth=1;fillColor=#d5e8d4;fontFamily=Verdana;fontSize=8;fontColor=#000000;align=center;" parent="77e6c97f196da883-4" vertex="1">
          <mxGeometry x="30" y="50" width="100" height="60" as="geometry" />
        </mxCell>
        <mxCell id="rqEri4Stav3ALLFuLHy2-86" value="Pipeline OK&lt;br&gt;All builds are Green?" style="rhombus;whiteSpace=wrap;html=1;rounded=0;shadow=0;labelBackgroundColor=none;strokeColor=#82b366;strokeWidth=1;fillColor=#d5e8d4;fontFamily=Verdana;fontSize=8;fontColor=#000000;align=center;" parent="77e6c97f196da883-4" vertex="1">
          <mxGeometry x="40" y="140" width="80" height="60" as="geometry" />
        </mxCell>
        <mxCell id="rqEri4Stav3ALLFuLHy2-87" value="" style="endArrow=classic;html=1;exitX=0.5;exitY=1;entryX=0.5;entryY=0;" parent="77e6c97f196da883-4" source="rqEri4Stav3ALLFuLHy2-85" target="rqEri4Stav3ALLFuLHy2-86" edge="1">
          <mxGeometry width="50" height="50" relative="1" as="geometry">
            <mxPoint x="-174.66666666666663" y="285.33333333333337" as="sourcePoint" />
            <mxPoint x="85" y="315" as="targetPoint" />
          </mxGeometry>
        </mxCell>
        <mxCell id="77e6c97f196da883-5" value="CI Integration Stage" style="swimlane;html=1;startSize=20;fillColor=#d5e8d4;strokeColor=#82b366;" parent="77e6c97f196da883-1" vertex="1">
          <mxGeometry x="620" y="20" width="160" height="450" as="geometry" />
        </mxCell>
        <mxCell id="77e6c97f196da883-15" value="The integration pipeline is triggered by the merged pull-request" style="rounded=1;whiteSpace=wrap;html=1;shadow=0;labelBackgroundColor=none;strokeColor=#82b366;strokeWidth=1;fillColor=#d5e8d4;fontFamily=Verdana;fontSize=8;fontColor=#000000;align=center;" parent="77e6c97f196da883-5" vertex="1">
          <mxGeometry x="30" y="50" width="100" height="60" as="geometry" />
        </mxCell>
        <mxCell id="77e6c97f196da883-17" value="&lt;div&gt;CI turns red,&lt;/div&gt;&lt;div&gt;&amp;nbsp;mail is sent to developers with changes since last green build&lt;/div&gt;" style="rounded=1;whiteSpace=wrap;html=1;shadow=0;labelBackgroundColor=none;strokeColor=#82b366;strokeWidth=1;fillColor=#d5e8d4;fontFamily=Verdana;fontSize=8;fontColor=#000000;align=center;" parent="77e6c97f196da883-5" vertex="1">
          <mxGeometry x="30" y="320" width="100" height="60" as="geometry" />
        </mxCell>
        <mxCell id="77e6c97f196da883-34" style="edgeStyle=orthogonalEdgeStyle;rounded=1;html=1;labelBackgroundColor=none;startArrow=none;startFill=0;startSize=5;endArrow=classicThin;endFill=1;endSize=5;jettySize=auto;orthogonalLoop=1;strokeColor=#000000;strokeWidth=1;fontFamily=Verdana;fontSize=8;fontColor=#000000;entryX=0.5;entryY=0;" parent="77e6c97f196da883-5" source="77e6c97f196da883-15" target="28" edge="1">
          <mxGeometry relative="1" as="geometry">
            <mxPoint x="80" y="160" as="targetPoint" />
            <Array as="points" />
          </mxGeometry>
        </mxCell>
        <mxCell id="77e6c97f196da883-35" style="edgeStyle=orthogonalEdgeStyle;rounded=1;html=1;labelBackgroundColor=none;startArrow=none;startFill=0;startSize=5;endArrow=classicThin;endFill=1;endSize=5;jettySize=auto;orthogonalLoop=1;strokeColor=#000000;strokeWidth=1;fontFamily=Verdana;fontSize=8;fontColor=#000000;exitX=0;exitY=0.5;entryX=0;entryY=0.5;entryDx=0;entryDy=0;" parent="77e6c97f196da883-5" source="28" target="77e6c97f196da883-17" edge="1">
          <mxGeometry relative="1" as="geometry">
            <mxPoint x="80" y="220" as="sourcePoint" />
            <Array as="points">
              <mxPoint x="10" y="170" />
              <mxPoint x="10" y="350" />
            </Array>
          </mxGeometry>
        </mxCell>
        <mxCell id="29" value="No" style="text;html=1;resizable=0;points=[];align=center;verticalAlign=middle;labelBackgroundColor=none;" parent="77e6c97f196da883-35" vertex="1" connectable="0">
          <mxGeometry x="-0.0779" y="-1" relative="1" as="geometry">
            <mxPoint x="19" y="-69" as="offset" />
          </mxGeometry>
        </mxCell>
        <mxCell id="28" value="Pipeline OK&lt;br&gt;All builds are Green?" style="rhombus;whiteSpace=wrap;html=1;rounded=0;shadow=0;labelBackgroundColor=none;strokeColor=#82b366;strokeWidth=1;fillColor=#d5e8d4;fontFamily=Verdana;fontSize=8;fontColor=#000000;align=center;" parent="77e6c97f196da883-5" vertex="1">
          <mxGeometry x="40" y="140" width="80" height="60" as="geometry" />
        </mxCell>
        <mxCell id="30" value="The stable/integration branch is fast forwarded to the commits tested" style="rounded=1;whiteSpace=wrap;html=1;shadow=0;labelBackgroundColor=none;strokeColor=#82b366;strokeWidth=1;fillColor=#d5e8d4;fontFamily=Verdana;fontSize=8;fontColor=#000000;align=center;" parent="77e6c97f196da883-5" vertex="1">
          <mxGeometry x="30" y="230" width="100" height="60" as="geometry" />
        </mxCell>
        <mxCell id="31" value="Yes" style="endArrow=classic;html=1;entryX=0.5;entryY=0;exitX=0.5;exitY=1;labelBackgroundColor=none;" parent="77e6c97f196da883-5" source="28" target="30" edge="1">
          <mxGeometry x="-0.3333" y="10" width="50" height="50" relative="1" as="geometry">
            <mxPoint x="70" y="320" as="sourcePoint" />
            <mxPoint x="120" y="270" as="targetPoint" />
            <Array as="points">
              <mxPoint x="80" y="220" />
            </Array>
            <mxPoint as="offset" />
          </mxGeometry>
        </mxCell>
        <mxCell id="33" value="" style="endArrow=classic;html=1;exitX=1;exitY=0.5;entryX=0;entryY=0.5;entryDx=0;entryDy=0;" parent="77e6c97f196da883-1" source="30" target="45" edge="1">
          <mxGeometry width="50" height="50" relative="1" as="geometry">
            <mxPoint x="800" y="1090" as="sourcePoint" />
            <mxPoint x="835" y="920" as="targetPoint" />
            <Array as="points">
              <mxPoint x="790" y="280" />
              <mxPoint x="790" y="326" />
            </Array>
          </mxGeometry>
        </mxCell>
        <mxCell id="77e6c97f196da883-6" value="Release" style="swimlane;html=1;startSize=20;fillColor=#fff2cc;strokeColor=#d6b656;" parent="77e6c97f196da883-1" vertex="1">
          <mxGeometry x="780" y="20" width="160" height="450" as="geometry" />
        </mxCell>
        <mxCell id="45" value="The release manager decides which build on the integration pipeline should determine the release" style="rounded=1;whiteSpace=wrap;html=1;shadow=0;labelBackgroundColor=none;strokeColor=#d6b656;strokeWidth=1;fillColor=#fff2cc;fontFamily=Verdana;fontSize=8;fontColor=#000000;align=center;" parent="77e6c97f196da883-6" vertex="1">
          <mxGeometry x="30" y="275.5" width="100" height="60" as="geometry" />
        </mxCell>
        <mxCell id="dbzHidqioh4Nz6uhVq-0-80" value="" style="group;fillColor=none;strokeColor=#9673A6;" parent="77e6c97f196da883-6" vertex="1" connectable="0">
          <mxGeometry x="5" y="30" width="150" height="195" as="geometry" />
        </mxCell>
        <mxCell id="dbzHidqioh4Nz6uhVq-0-81" value="" style="rounded=0;whiteSpace=wrap;html=1;fillColor=none;" parent="dbzHidqioh4Nz6uhVq-0-80" vertex="1">
          <mxGeometry width="150" height="194.99999999999994" as="geometry" />
        </mxCell>
        <mxCell id="dbzHidqioh4Nz6uhVq-0-82" value="Automatic Process" style="rounded=1;whiteSpace=wrap;html=1;shadow=0;labelBackgroundColor=none;strokeColor=#82b366;strokeWidth=1;fillColor=#d5e8d4;fontFamily=Verdana;fontSize=8;fontColor=#000000;align=center;" parent="dbzHidqioh4Nz6uhVq-0-80" vertex="1">
          <mxGeometry x="5" y="120" width="140" height="30" as="geometry" />
        </mxCell>
        <mxCell id="dbzHidqioh4Nz6uhVq-0-83" value="Developer/human process " style="rounded=1;whiteSpace=wrap;html=1;shadow=0;labelBackgroundColor=none;strokeColor=#6c8ebf;strokeWidth=1;fillColor=#dae8fc;fontFamily=Verdana;fontSize=8;fontColor=#000000;align=center;" parent="dbzHidqioh4Nz6uhVq-0-80" vertex="1">
          <mxGeometry x="5" y="38.99999999999999" width="140" height="30" as="geometry" />
        </mxCell>
        <mxCell id="dbzHidqioh4Nz6uhVq-0-84" value="Release manager/human process" style="rounded=1;whiteSpace=wrap;html=1;shadow=0;labelBackgroundColor=none;strokeColor=#d6b656;strokeWidth=1;fillColor=#fff2cc;fontFamily=Verdana;fontSize=8;fontColor=#000000;align=center;" parent="dbzHidqioh4Nz6uhVq-0-80" vertex="1">
          <mxGeometry x="5" y="160.0033333333333" width="140" height="30" as="geometry" />
        </mxCell>
        <mxCell id="dbzHidqioh4Nz6uhVq-0-85" value="&lt;font color=&quot;#FFFFFF&quot;&gt;Roles&lt;/font&gt;" style="rounded=0;whiteSpace=wrap;html=1;fillColor=#000000;" parent="dbzHidqioh4Nz6uhVq-0-80" vertex="1">
          <mxGeometry width="150" height="30" as="geometry" />
        </mxCell>
        <mxCell id="rqEri4Stav3ALLFuLHy2-99" value="&lt;div&gt;Reviewer/human process &lt;/div&gt;" style="rounded=1;whiteSpace=wrap;html=1;shadow=0;labelBackgroundColor=none;strokeColor=#9673A6;strokeWidth=1;fillColor=#E1D5E7;fontFamily=Verdana;fontSize=8;fontColor=#000000;align=center;" parent="dbzHidqioh4Nz6uhVq-0-80" vertex="1">
          <mxGeometry x="5" y="79" width="140" height="30" as="geometry" />
        </mxCell>
        <mxCell id="rqEri4Stav3ALLFuLHy2-70" value="" style="endArrow=classic;html=1;exitX=0;exitY=0.5;entryX=0.5;entryY=1;" parent="77e6c97f196da883-1" source="12" target="77e6c97f196da883-10" edge="1">
          <mxGeometry width="50" height="50" relative="1" as="geometry">
            <mxPoint x="540" y="-20" as="sourcePoint" />
            <mxPoint x="120.00000000000011" y="100" as="targetPoint" />
            <Array as="points">
              <mxPoint x="470" y="370" />
              <mxPoint x="470" y="350" />
              <mxPoint x="320" y="350" />
              <mxPoint x="80" y="350" />
            </Array>
          </mxGeometry>
        </mxCell>
        <mxCell id="rqEri4Stav3ALLFuLHy2-94" value="&lt;div&gt;No&lt;/div&gt;" style="edgeLabel;html=1;align=center;verticalAlign=middle;resizable=0;points=[];labelBackgroundColor=none;" parent="rqEri4Stav3ALLFuLHy2-70" vertex="1" connectable="0">
          <mxGeometry x="-0.9264" y="-1" relative="1" as="geometry">
            <mxPoint x="6" y="-4" as="offset" />
          </mxGeometry>
        </mxCell>
        <mxCell id="rqEri4Stav3ALLFuLHy2-92" style="edgeStyle=none;rounded=1;jumpStyle=arc;orthogonalLoop=1;jettySize=auto;html=1;exitX=1;exitY=0.5;exitDx=0;exitDy=0;entryX=0;entryY=0.5;entryDx=0;entryDy=0;" parent="77e6c97f196da883-1" source="6" target="rqEri4Stav3ALLFuLHy2-85" edge="1">
          <mxGeometry relative="1" as="geometry">
            <Array as="points">
              <mxPoint x="300" y="190" />
              <mxPoint x="300" y="140" />
              <mxPoint x="450" y="140" />
              <mxPoint x="450" y="100" />
            </Array>
          </mxGeometry>
        </mxCell>
        <mxCell id="rqEri4Stav3ALLFuLHy2-69" style="edgeStyle=none;rounded=1;orthogonalLoop=1;jettySize=auto;html=1;exitX=1;exitY=0.5;exitDx=0;exitDy=0;entryX=0;entryY=0.5;entryDx=0;entryDy=0;jumpStyle=arc;" parent="77e6c97f196da883-1" source="rqEri4Stav3ALLFuLHy2-65" target="11" edge="1">
          <mxGeometry relative="1" as="geometry">
            <Array as="points">
              <mxPoint x="300" y="280" />
              <mxPoint x="300" y="330" />
              <mxPoint x="470" y="330" />
              <mxPoint x="470" y="280" />
            </Array>
          </mxGeometry>
        </mxCell>
        <mxCell id="rqEri4Stav3ALLFuLHy2-95" value="Yes" style="edgeStyle=none;rounded=1;jumpStyle=arc;orthogonalLoop=1;jettySize=auto;html=1;exitX=0.5;exitY=1;exitDx=0;exitDy=0;entryX=0.5;entryY=1;entryDx=0;entryDy=0;labelBackgroundColor=none;" parent="77e6c97f196da883-1" source="12" target="rqEri4Stav3ALLFuLHy2-67" edge="1">
          <mxGeometry x="-0.7895" y="-10" relative="1" as="geometry">
            <Array as="points">
              <mxPoint x="540" y="420" />
              <mxPoint x="385" y="420" />
            </Array>
            <mxPoint as="offset" />
          </mxGeometry>
        </mxCell>
        <mxCell id="rqEri4Stav3ALLFuLHy2-89" style="edgeStyle=none;rounded=1;jumpStyle=arc;orthogonalLoop=1;jettySize=auto;html=1;exitX=0;exitY=0.5;exitDx=0;exitDy=0;entryX=0.5;entryY=1;entryDx=0;entryDy=0;" parent="77e6c97f196da883-1" source="rqEri4Stav3ALLFuLHy2-86" target="77e6c97f196da883-10" edge="1">
          <mxGeometry relative="1" as="geometry">
            <mxPoint x="80.00000000000011" y="330" as="targetPoint" />
            <Array as="points">
              <mxPoint x="470" y="190" />
              <mxPoint x="470" y="230" />
              <mxPoint x="320" y="230" />
              <mxPoint x="320" y="350" />
              <mxPoint x="80" y="350" />
            </Array>
          </mxGeometry>
        </mxCell>
        <mxCell id="rqEri4Stav3ALLFuLHy2-91" value="No" style="edgeLabel;html=1;align=center;verticalAlign=middle;resizable=0;points=[];labelBackgroundColor=none;" parent="rqEri4Stav3ALLFuLHy2-89" vertex="1" connectable="0">
          <mxGeometry x="-0.8448" relative="1" as="geometry">
            <mxPoint x="18" y="-11" as="offset" />
          </mxGeometry>
        </mxCell>
        <mxCell id="rqEri4Stav3ALLFuLHy2-79" style="edgeStyle=none;rounded=1;orthogonalLoop=1;jettySize=auto;html=1;exitX=0;exitY=0.5;exitDx=0;exitDy=0;entryX=0.5;entryY=1;entryDx=0;entryDy=0;" parent="77e6c97f196da883-1" source="rqEri4Stav3ALLFuLHy2-77" target="77e6c97f196da883-10" edge="1">
          <mxGeometry relative="1" as="geometry">
            <mxPoint x="80" y="390" as="targetPoint" />
            <Array as="points">
              <mxPoint x="320" y="190" />
              <mxPoint x="320" y="350" />
              <mxPoint x="80" y="350" />
            </Array>
          </mxGeometry>
        </mxCell>
        <mxCell id="rqEri4Stav3ALLFuLHy2-88" value="&lt;div&gt;No&lt;/div&gt;" style="edgeLabel;html=1;align=center;verticalAlign=middle;resizable=0;points=[];labelBackgroundColor=none;" parent="rqEri4Stav3ALLFuLHy2-79" vertex="1" connectable="0">
          <mxGeometry x="-0.6169" relative="1" as="geometry">
            <mxPoint x="14" y="-55" as="offset" />
          </mxGeometry>
        </mxCell>
        <mxCell id="dbzHidqioh4Nz6uhVq-0-75" value="" style="endArrow=classic;html=1;exitX=1;exitY=0.5;entryX=0;entryY=0.5;entryDx=0;entryDy=0;exitDx=0;exitDy=0;" parent="77e6c97f196da883-1" source="45" target="51" edge="1">
          <mxGeometry width="50" height="50" relative="1" as="geometry">
            <mxPoint x="905.1904761904761" y="289.54761904761904" as="sourcePoint" />
            <mxPoint x="959.952380952381" y="289.54761904761904" as="targetPoint" />
            <Array as="points" />
          </mxGeometry>
        </mxCell>
        <mxCell id="rqEri4Stav3ALLFuLHy2-96" style="edgeStyle=none;rounded=1;jumpStyle=arc;orthogonalLoop=1;jettySize=auto;html=1;exitX=0.5;exitY=1;exitDx=0;exitDy=0;entryX=1;entryY=0.5;entryDx=0;entryDy=0;" parent="77e6c97f196da883-1" source="77e6c97f196da883-17" target="KYjhEQh0ZWCMsTncpk0a-76" edge="1">
          <mxGeometry relative="1" as="geometry">
            <Array as="points">
              <mxPoint x="700" y="430" />
              <mxPoint x="290" y="430" />
            </Array>
          </mxGeometry>
        </mxCell>
        <mxCell id="77e6c97f196da883-7" value="CI Stable/Release stage" style="swimlane;html=1;startSize=20;fillColor=#d5e8d4;strokeColor=#82b366;" parent="77e6c97f196da883-1" vertex="1">
          <mxGeometry x="940" y="20" width="160" height="450" as="geometry" />
        </mxCell>
        <mxCell id="dbzHidqioh4Nz6uhVq-0-79" value="" style="edgeStyle=orthogonalEdgeStyle;rounded=0;orthogonalLoop=1;jettySize=auto;html=1;" parent="77e6c97f196da883-7" source="51" target="dbzHidqioh4Nz6uhVq-0-78" edge="1">
          <mxGeometry relative="1" as="geometry" />
        </mxCell>
        <mxCell id="51" value="The tag describing the release is pushed to Github&lt;br&gt;&lt;br&gt;The patch is released" style="rounded=1;whiteSpace=wrap;html=1;shadow=0;labelBackgroundColor=none;strokeColor=#82b366;strokeWidth=1;fillColor=#d5e8d4;fontFamily=Verdana;fontSize=8;fontColor=#000000;align=center;" parent="77e6c97f196da883-7" vertex="1">
          <mxGeometry x="30" y="275.5" width="100" height="60" as="geometry" />
        </mxCell>
        <mxCell id="dbzHidqioh4Nz6uhVq-0-78" value="The release is deployed to target(s)" style="rounded=1;whiteSpace=wrap;html=1;shadow=0;labelBackgroundColor=none;strokeColor=#82b366;strokeWidth=1;fillColor=#d5e8d4;fontFamily=Verdana;fontSize=8;fontColor=#000000;align=center;" parent="77e6c97f196da883-7" vertex="1">
          <mxGeometry x="30" y="370" width="100" height="60" as="geometry" />
        </mxCell>
      </root>
    </mxGraphModel>
  </diagram>
</mxfile>
